<?xml version="1.0" encoding="UTF-8" standalone="no"?><svg xmlns="http://www.w3.org/2000/svg" xmlns:xlink="http://www.w3.org/1999/xlink" contentStyleType="text/css" height="354px" preserveAspectRatio="none" style="width:1085px;height:354px;background:#FFFFFF;" version="1.1" viewBox="0 0 1085 354" width="1085px" zoomAndPan="magnify"><defs/><g><rect fill="#FFFFFF" height="233.9297" style="stroke:#181818;stroke-width:1.0;" width="10" x="99" y="67.4297"/><rect fill="#FFFFFF" height="204.7969" style="stroke:#181818;stroke-width:1.0;" width="10" x="251.5" y="96.5625"/><rect fill="#FFFFFF" height="146.5313" style="stroke:#181818;stroke-width:1.0;" width="10" x="437.5" y="125.6953"/><rect fill="#FFFFFF" height="30" style="stroke:#181818;stroke-width:1.0;" width="10" x="735.5" y="154.8281"/><rect fill="#FFFFFF" height="29.1328" style="stroke:#181818;stroke-width:1.0;" width="10" x="845" y="213.9609"/><line style="stroke:#181818;stroke-width:0.5;stroke-dasharray:5.0,5.0;" x1="103.5" x2="103.5" y1="36.2969" y2="319.3594"/><line style="stroke:#181818;stroke-width:0.5;stroke-dasharray:5.0,5.0;" x1="256.5" x2="256.5" y1="36.2969" y2="319.3594"/><line style="stroke:#181818;stroke-width:0.5;stroke-dasharray:5.0,5.0;" x1="442.5" x2="442.5" y1="36.2969" y2="319.3594"/><line style="stroke:#181818;stroke-width:0.5;stroke-dasharray:5.0,5.0;" x1="584.5" x2="584.5" y1="36.2969" y2="319.3594"/><line style="stroke:#181818;stroke-width:0.5;stroke-dasharray:5.0,5.0;" x1="740.5" x2="740.5" y1="36.2969" y2="319.3594"/><line style="stroke:#181818;stroke-width:0.5;stroke-dasharray:5.0,5.0;" x1="849.5" x2="849.5" y1="36.2969" y2="319.3594"/><line style="stroke:#181818;stroke-width:0.5;stroke-dasharray:5.0,5.0;" x1="981.5" x2="981.5" y1="36.2969" y2="319.3594"/><rect fill="#E2E2F0" height="30.2969" rx="2.5" ry="2.5" style="stroke:#181818;stroke-width:0.5;" width="57" x="75.5" y="5"/><text fill="#000000" font-family="sans-serif" font-size="14" lengthAdjust="spacing" textLength="43" x="82.5" y="24.9951">Route</text><rect fill="#E2E2F0" height="30.2969" rx="2.5" ry="2.5" style="stroke:#181818;stroke-width:0.5;" width="57" x="75.5" y="318.3594"/><text fill="#000000" font-family="sans-serif" font-size="14" lengthAdjust="spacing" textLength="43" x="82.5" y="338.3545">Route</text><rect fill="#E2E2F0" height="30.2969" rx="2.5" ry="2.5" style="stroke:#181818;stroke-width:0.5;" width="228" x="142.5" y="5"/><text fill="#000000" font-family="sans-serif" font-size="14" lengthAdjust="spacing" textLength="214" x="149.5" y="24.9951">controller : EntregaController</text><rect fill="#E2E2F0" height="30.2969" rx="2.5" ry="2.5" style="stroke:#181818;stroke-width:0.5;" width="228" x="142.5" y="318.3594"/><text fill="#000000" font-family="sans-serif" font-size="14" lengthAdjust="spacing" textLength="214" x="149.5" y="338.3545">controller : EntregaController</text><rect fill="#E2E2F0" height="30.2969" rx="2.5" ry="2.5" style="stroke:#181818;stroke-width:0.5;" width="124" x="380.5" y="5"/><text fill="#000000" font-family="sans-serif" font-size="14" lengthAdjust="spacing" textLength="110" x="387.5" y="24.9951">EntregaService</text><rect fill="#E2E2F0" height="30.2969" rx="2.5" ry="2.5" style="stroke:#181818;stroke-width:0.5;" width="124" x="380.5" y="318.3594"/><text fill="#000000" font-family="sans-serif" font-size="14" lengthAdjust="spacing" textLength="110" x="387.5" y="338.3545">EntregaService</text><rect fill="#E2E2F0" height="30.2969" rx="2.5" ry="2.5" style="stroke:#181818;stroke-width:0.5;" width="141" x="514.5" y="5"/><text fill="#000000" font-family="sans-serif" font-size="14" lengthAdjust="spacing" textLength="127" x="521.5" y="24.9951">entrega : Entrega</text><rect fill="#E2E2F0" height="30.2969" rx="2.5" ry="2.5" style="stroke:#181818;stroke-width:0.5;" width="141" x="514.5" y="318.3594"/><text fill="#000000" font-family="sans-serif" font-size="14" lengthAdjust="spacing" textLength="127" x="521.5" y="338.3545">entrega : Entrega</text><rect fill="#E2E2F0" height="30.2969" rx="2.5" ry="2.5" style="stroke:#181818;stroke-width:0.5;" width="150" x="665.5" y="5"/><text fill="#000000" font-family="sans-serif" font-size="14" lengthAdjust="spacing" textLength="136" x="672.5" y="24.9951">EntregaRepository</text><rect fill="#E2E2F0" height="30.2969" rx="2.5" ry="2.5" style="stroke:#181818;stroke-width:0.5;" width="150" x="665.5" y="318.3594"/><text fill="#000000" font-family="sans-serif" font-size="14" lengthAdjust="spacing" textLength="136" x="672.5" y="338.3545">EntregaRepository</text><rect fill="#E2E2F0" height="30.2969" rx="2.5" ry="2.5" style="stroke:#181818;stroke-width:0.5;" width="49" x="825.5" y="5"/><text fill="#000000" font-family="sans-serif" font-size="14" lengthAdjust="spacing" textLength="35" x="832.5" y="24.9951">:Map</text><rect fill="#E2E2F0" height="30.2969" rx="2.5" ry="2.5" style="stroke:#181818;stroke-width:0.5;" width="49" x="825.5" y="318.3594"/><text fill="#000000" font-family="sans-serif" font-size="14" lengthAdjust="spacing" textLength="35" x="832.5" y="338.3545">:Map</text><rect fill="#E2E2F0" height="30.2969" rx="2.5" ry="2.5" style="stroke:#181818;stroke-width:0.5;" width="195" x="884.5" y="5"/><text fill="#000000" font-family="sans-serif" font-size="14" lengthAdjust="spacing" textLength="181" x="891.5" y="24.9951">entregaDto : EntregaDto</text><rect fill="#E2E2F0" height="30.2969" rx="2.5" ry="2.5" style="stroke:#181818;stroke-width:0.5;" width="195" x="884.5" y="318.3594"/><text fill="#000000" font-family="sans-serif" font-size="14" lengthAdjust="spacing" textLength="181" x="891.5" y="338.3545">entregaDto : EntregaDto</text><rect fill="#FFFFFF" height="233.9297" style="stroke:#181818;stroke-width:1.0;" width="10" x="99" y="67.4297"/><rect fill="#FFFFFF" height="204.7969" style="stroke:#181818;stroke-width:1.0;" width="10" x="251.5" y="96.5625"/><rect fill="#FFFFFF" height="146.5313" style="stroke:#181818;stroke-width:1.0;" width="10" x="437.5" y="125.6953"/><rect fill="#FFFFFF" height="30" style="stroke:#181818;stroke-width:1.0;" width="10" x="735.5" y="154.8281"/><rect fill="#FFFFFF" height="29.1328" style="stroke:#181818;stroke-width:1.0;" width="10" x="845" y="213.9609"/><ellipse cx="7.5" cy="66.6797" fill="none" rx="4" ry="4" style="stroke:#181818;stroke-width:1.5;"/><polygon fill="#181818" points="87,63.4297,97,67.4297,87,71.4297,91,67.4297" style="stroke:#181818;stroke-width:1.0;"/><line style="stroke:#181818;stroke-width:1.0;" x1="12" x2="93" y1="67.4297" y2="67.4297"/><text fill="#000000" font-family="sans-serif" font-size="13" font-weight="bold" lengthAdjust="spacing" textLength="9" x="15" y="62.3638">1</text><text fill="#000000" font-family="sans-serif" font-size="13" lengthAdjust="spacing" textLength="59" x="28" y="62.3638">Get(json)</text><polygon fill="#181818" points="239.5,92.5625,249.5,96.5625,239.5,100.5625,243.5,96.5625" style="stroke:#181818;stroke-width:1.0;"/><line style="stroke:#181818;stroke-width:1.0;" x1="109" x2="245.5" y1="96.5625" y2="96.5625"/><text fill="#000000" font-family="sans-serif" font-size="13" font-weight="bold" lengthAdjust="spacing" textLength="9" x="116" y="91.4966">2</text><text fill="#000000" font-family="sans-serif" font-size="13" lengthAdjust="spacing" textLength="38" x="129" y="91.4966">GetAll</text><polygon fill="#181818" points="425.5,121.6953,435.5,125.6953,425.5,129.6953,429.5,125.6953" style="stroke:#181818;stroke-width:1.0;"/><line style="stroke:#181818;stroke-width:1.0;" x1="261.5" x2="431.5" y1="125.6953" y2="125.6953"/><text fill="#000000" font-family="sans-serif" font-size="13" font-weight="bold" lengthAdjust="spacing" textLength="8" x="268.5" y="120.6294">3</text><text fill="#000000" font-family="sans-serif" font-size="13" lengthAdjust="spacing" textLength="118" x="280.5" y="120.6294">GetAllAsync() : list</text><polygon fill="#181818" points="723.5,150.8281,733.5,154.8281,723.5,158.8281,727.5,154.8281" style="stroke:#181818;stroke-width:1.0;"/><line style="stroke:#181818;stroke-width:1.0;" x1="447.5" x2="729.5" y1="154.8281" y2="154.8281"/><text fill="#000000" font-family="sans-serif" font-size="13" font-weight="bold" lengthAdjust="spacing" textLength="9" x="454.5" y="149.7622">4</text><text fill="#000000" font-family="sans-serif" font-size="13" lengthAdjust="spacing" textLength="118" x="467.5" y="149.7622">GetAllAsync() : list</text><polygon fill="#181818" points="833,209.9609,843,213.9609,833,217.9609,837,213.9609" style="stroke:#181818;stroke-width:1.0;"/><line style="stroke:#181818;stroke-width:1.0;" x1="447.5" x2="839" y1="213.9609" y2="213.9609"/><text fill="#000000" font-family="sans-serif" font-size="13" font-weight="bold" lengthAdjust="spacing" textLength="9" x="454.5" y="208.895">5</text><text fill="#000000" font-family="sans-serif" font-size="13" lengthAdjust="spacing" textLength="212" x="467.5" y="208.895">covertToDto(list) : lisrEntregaDto</text><polygon fill="#181818" points="970,239.0938,980,243.0938,970,247.0938,974,243.0938" style="stroke:#181818;stroke-width:1.0;"/><line style="stroke:#181818;stroke-width:1.0;stroke-dasharray:2.0,2.0;" x1="850" x2="976" y1="243.0938" y2="243.0938"/><text fill="#000000" font-family="sans-serif" font-size="13" font-weight="bold" lengthAdjust="spacing" textLength="9" x="857" y="238.0278">6</text><text fill="#000000" font-family="sans-serif" font-size="13" lengthAdjust="spacing" textLength="41" x="870" y="238.0278">create</text><polygon fill="#181818" points="272.5,268.2266,262.5,272.2266,272.5,276.2266,268.5,272.2266" style="stroke:#181818;stroke-width:1.0;"/><line style="stroke:#181818;stroke-width:1.0;stroke-dasharray:2.0,2.0;" x1="266.5" x2="441.5" y1="272.2266" y2="272.2266"/><text fill="#000000" font-family="sans-serif" font-size="13" font-weight="bold" lengthAdjust="spacing" textLength="9" x="278.5" y="267.1606">7</text><text fill="#000000" font-family="sans-serif" font-size="13" lengthAdjust="spacing" textLength="91" x="291.5" y="267.1606">listEntregaDto</text><polygon fill="#181818" points="115,297.3594,105,301.3594,115,305.3594,111,301.3594" style="stroke:#181818;stroke-width:1.0;"/><line style="stroke:#181818;stroke-width:1.0;stroke-dasharray:2.0,2.0;" x1="109" x2="255.5" y1="301.3594" y2="301.3594"/><text fill="#000000" font-family="sans-serif" font-size="13" font-weight="bold" lengthAdjust="spacing" textLength="9" x="121" y="296.2935">8</text><text fill="#000000" font-family="sans-serif" font-size="13" lengthAdjust="spacing" textLength="59" x="134" y="296.2935">response</text><!--MD5=[1b959adc2577df9fff1bd973d862e7fc]
@startuml
autonumber

participant "Route" as route
participant "controller : EntregaController" as cont

participant "EntregaService" as serv
participant "entrega : Entrega" as ent
participant "EntregaRepository" as repo
participant ":Map" as M
participant "entregaDto : EntregaDto" as dto

[o->route: Get(json)

activate route

route -> cont: GetAll
activate cont

cont -> serv:  GetAllAsync() : list
activate serv



serv -> repo:  GetAllAsync() : list
activate repo
deactivate repo

serv -> M : covertToDto(list) : lisrEntregaDto
activate M

M - -> dto : create

deactivate M


serv - -> cont: listEntregaDto
deactivate serv
cont - -> route: response
deactivate cont

deactivate route
@enduml

PlantUML version 1.2022.13beta5(Unknown compile time)
(GPL source distribution)
Java Runtime: Java(TM) SE Runtime Environment
JVM: Java HotSpot(TM) 64-Bit Server VM
Default Encoding: UTF-8
Language: en
Country: US
--></g></svg>